{"title":"Under.the.Dome.S03E07.HDTV.480p.x264.AAC-VYTO [P2PDL]","uid":12176522,"size":149643175,"categoryP":"video","categoryS":"hd___tv_shows","magnet":"?xt=urn:btih:6c2cd060c6b7153ef04fbd089cf1b3b14144d421&amp;dn=Under.the.Dome.S03E07.HDTV.480p.x264.AAC-VYTO+%5BP2PDL%5D&amp;tr=udp%3A%2F%2Ftracker.openbittorrent.com%3A80&amp;tr=udp%3A%2F%2Fopen.demonii.com%3A1337&amp;tr=udp%3A%2F%2Ftracker.coppersurfer.tk%3A6969&amp;tr=udp%3A%2F%2Fexodus.desync.com%3A6969","seeders":3,"leechers":0,"uploader":"ValidusVyto","files":6,"time":1438323353,"description":"____    ____ ____    ____ .___________.  ______   \n     /   /      /   / |           | /  __    \n    /   /      /   /  `---|  |----`|  |  |  | \n        /     _    _/       |  |     |  |  |  | \n       /        |  |         |  |     |  `--'  | \n    __/         |__|         |__|      ______/  \n                                                  \nPresenting Small Encodes with quality for years!\n                                                                                                   \n                                                                                                   \n\nUnder.the.Dome.S03E07.HDTV.480p.x264.AAC-VYTO\n\n\nGeneral\nFormat                         : MPEG-4\nFile size                      : 137 MiB\nDuration                       : 41mn 34s\nOverall bit rate               : 462 Kbps\n\nVideo\nFormat                         : AVC\nBit rate                       : 427 Kbps\nWidth                          : 720 pixels\nHeight                         : 400 pixels\nDisplay aspect ratio           : 16:9\nFrame rate mode                : Constant\nFrame rate                     : 23.976 fps\nBit depth                      : 8 bits\nStream size                    : 127 MiB (92%)\nWriting library                : x264 core 146 r2538 121396c\n\nAudio\nFormat                         : AAC\nBit rate mode                  : Variable\nBit rate                       : 32.0 Kbps\nChannel(s)                     : 2 channels\nChannel positions              : Front: L R\nSampling rate                  : 48.0 KHz\nStream size                    : 9.51 MiB (7%)\n\n\nScreenshots:\n &lt;a href=&quot;\nhttp://ititli.com/Tw&quot; rel=&quot;nofollow&quot; target=&quot;_NEW&quot;&gt;\nhttp://ititli.com/Tw&lt;/a&gt; &lt;a href=&quot;\nhttp://ititli.com/T2&quot; rel=&quot;nofollow&quot; target=&quot;_NEW&quot;&gt;\nhttp://ititli.com/T2&lt;/a&gt; &lt;a href=&quot;\nhttp://ititli.com/T6&quot; rel=&quot;nofollow&quot; target=&quot;_NEW&quot;&gt;\nhttp://ititli.com/T6&lt;/a&gt; &lt;a href=&quot;\nhttp://ititli.com/T8&quot; rel=&quot;nofollow&quot; target=&quot;_NEW&quot;&gt;\nhttp://ititli.com/T8&lt;/a&gt; &lt;a href=&quot;\nhttp://ititli.com/Te&quot; rel=&quot;nofollow&quot; target=&quot;_NEW&quot;&gt;\nhttp://ititli.com/Te&lt;/a&gt; &lt;a href=&quot;\nhttp://ititli.com/Tj&quot; rel=&quot;nofollow&quot; target=&quot;_NEW&quot;&gt;\nhttp://ititli.com/Tj&lt;/a&gt; &lt;a href=&quot;\nhttp://ititli.com/Tk&quot; rel=&quot;nofollow&quot; target=&quot;_NEW&quot;&gt;\nhttp://ititli.com/Tk&lt;/a&gt; &lt;a href=&quot;\nhttp://ititli.com/To&quot; rel=&quot;nofollow&quot; target=&quot;_NEW&quot;&gt;\nhttp://ititli.com/To&lt;/a&gt; &lt;a href=&quot;\nhttp://ititli.com/TG&quot; rel=&quot;nofollow&quot; target=&quot;_NEW&quot;&gt;\nhttp://ititli.com/TG&lt;/a&gt; &lt;a href=&quot;\nhttp://ititli.com/TH&quot; rel=&quot;nofollow&quot; target=&quot;_NEW&quot;&gt;\nhttp://ititli.com/TH&lt;/a&gt; &lt;a href=&quot;\nhttp://ititli.com/TM&quot; rel=&quot;nofollow&quot; target=&quot;_NEW&quot;&gt;\nhttp://ititli.com/TM&lt;/a&gt; &lt;a href=&quot;\nhttp://ititli.com/TU&quot; rel=&quot;nofollow&quot; target=&quot;_NEW&quot;&gt;\nhttp://ititli.com/TU&lt;/a&gt;\n\n----------------------------------------------------------------------------------------------------\n\n\nEncoder Notes: Looking For Early Access To Anything You Can Provide DVDScr, R5, DVDR, BluRay, Direct\nAudio, Music Releases and Seedboxes. If You Got anything to offer please contact us.\n\nSupport us by donating BC - 1FgwdzPsd1y25Gea8wP1qni35uGCtmkRCD","torrent":{"xt":"urn:btih:6c2cd060c6b7153ef04fbd089cf1b3b14144d421","amp;dn":"Under.the.Dome.S03E07.HDTV.480p.x264.AAC-VYTO+%5BP2PDL%5D","amp;tr":["udp%3A%2F%2Ftracker.openbittorrent.com%3A80","udp%3A%2F%2Fopen.demonii.com%3A1337","udp%3A%2F%2Ftracker.coppersurfer.tk%3A6969","udp%3A%2F%2Fexodus.desync.com%3A6969"],"infoHash":"6c2cd060c6b7153ef04fbd089cf1b3b14144d421","infoHashBuffer":{"type":"Buffer","data":[108,44,208,96,198,183,21,62,240,79,189,8,156,241,179,177,65,68,212,33]},"announce":[],"urlList":[]}}